<svg width="200" height="200" viewBox="0 0 200 200" fill="none" xmlns="http://www.w3.org/2000/svg">
<rect width="200" height="200" rx="16" fill="#F3F5F7"/>
<path d="M32 44C32 37.3726 37.3726 32 44 32H200V200H32V44Z" fill="white"/>
<path d="M60.236 70.144C59.588 70.144 59.012 70.008 58.508 69.736C58.012 69.464 57.624 69.092 57.344 68.62C57.072 68.14 56.936 67.596 56.936 66.988V61.06H58.124V66.964C58.124 67.372 58.212 67.736 58.388 68.056C58.572 68.368 58.82 68.612 59.132 68.788C59.452 68.964 59.82 69.052 60.236 69.052C60.652 69.052 61.016 68.964 61.328 68.788C61.648 68.612 61.896 68.368 62.072 68.056C62.256 67.736 62.348 67.372 62.348 66.964V61.06H63.536V66.988C63.536 67.596 63.396 68.14 63.116 68.62C62.844 69.092 62.46 69.464 61.964 69.736C61.468 70.008 60.892 70.144 60.236 70.144ZM67.4127 70.144C66.7647 70.144 66.2007 69.984 65.7207 69.664C65.2407 69.344 64.9007 68.912 64.7007 68.368L65.5887 67.936C65.7727 68.32 66.0247 68.624 66.3447 68.848C66.6647 69.072 67.0207 69.184 67.4127 69.184C67.7647 69.184 68.0567 69.1 68.2887 68.932C68.5207 68.764 68.6367 68.544 68.6367 68.272C68.6367 68.08 68.5807 67.928 68.4687 67.816C68.3647 67.696 68.2367 67.604 68.0847 67.54C67.9327 67.468 67.7927 67.416 67.6647 67.384L66.6927 67.108C66.1087 66.94 65.6807 66.7 65.4087 66.388C65.1447 66.076 65.0127 65.712 65.0127 65.296C65.0127 64.912 65.1087 64.58 65.3007 64.3C65.5007 64.012 65.7687 63.788 66.1047 63.628C66.4487 63.468 66.8327 63.388 67.2567 63.388C67.8247 63.388 68.3327 63.532 68.7807 63.82C69.2367 64.108 69.5607 64.512 69.7527 65.032L68.8407 65.452C68.6967 65.116 68.4807 64.852 68.1927 64.66C67.9047 64.46 67.5807 64.36 67.2207 64.36C66.8927 64.36 66.6327 64.444 66.4407 64.612C66.2487 64.772 66.1527 64.976 66.1527 65.224C66.1527 65.408 66.2007 65.56 66.2967 65.68C66.3927 65.792 66.5087 65.88 66.6447 65.944C66.7807 66 66.9127 66.048 67.0407 66.088L68.0967 66.4C68.6247 66.552 69.0327 66.788 69.3207 67.108C69.6167 67.428 69.7647 67.812 69.7647 68.26C69.7647 68.62 69.6647 68.944 69.4647 69.232C69.2647 69.52 68.9887 69.744 68.6367 69.904C68.2847 70.064 67.8767 70.144 67.4127 70.144ZM73.9616 70.144C73.3376 70.144 72.7816 69.996 72.2936 69.7C71.8056 69.404 71.4216 69 71.1416 68.488C70.8616 67.968 70.7216 67.388 70.7216 66.748C70.7216 66.1 70.8576 65.524 71.1296 65.02C71.4096 64.516 71.7856 64.12 72.2576 63.832C72.7376 63.536 73.2736 63.388 73.8656 63.388C74.3456 63.388 74.7696 63.476 75.1376 63.652C75.5136 63.82 75.8296 64.052 76.0856 64.348C76.3496 64.636 76.5496 64.968 76.6856 65.344C76.8296 65.712 76.9016 66.096 76.9016 66.496C76.9016 66.584 76.8936 66.684 76.8776 66.796C76.8696 66.9 76.8576 67 76.8416 67.096H71.5376V66.136H76.1936L75.6656 66.568C75.7376 66.152 75.6976 65.78 75.5456 65.452C75.3936 65.124 75.1696 64.864 74.8736 64.672C74.5776 64.48 74.2416 64.384 73.8656 64.384C73.4896 64.384 73.1456 64.48 72.8336 64.672C72.5216 64.864 72.2776 65.14 72.1016 65.5C71.9336 65.852 71.8656 66.272 71.8976 66.76C71.8656 67.232 71.9376 67.648 72.1136 68.008C72.2976 68.36 72.5536 68.636 72.8816 68.836C73.2176 69.028 73.5816 69.124 73.9736 69.124C74.4056 69.124 74.7696 69.024 75.0656 68.824C75.3616 68.624 75.6016 68.368 75.7856 68.056L76.7216 68.536C76.5936 68.832 76.3936 69.104 76.1216 69.352C75.8576 69.592 75.5416 69.784 75.1736 69.928C74.8136 70.072 74.4096 70.144 73.9616 70.144ZM78.1167 70V63.532H79.2087V64.72L79.0887 64.552C79.2407 64.184 79.4727 63.912 79.7847 63.736C80.0967 63.552 80.4767 63.46 80.9247 63.46H81.3207V64.516H80.7567C80.3007 64.516 79.9327 64.66 79.6527 64.948C79.3727 65.228 79.2327 65.628 79.2327 66.148V70H78.1167ZM82.072 70V63.532H83.164V64.792L82.984 64.684C83.144 64.276 83.4 63.96 83.752 63.736C84.112 63.504 84.532 63.388 85.012 63.388C85.476 63.388 85.888 63.492 86.248 63.7C86.616 63.908 86.904 64.196 87.112 64.564C87.328 64.932 87.436 65.348 87.436 65.812V70H86.308V66.172C86.308 65.812 86.244 65.508 86.116 65.26C85.988 65.012 85.804 64.82 85.564 64.684C85.332 64.54 85.064 64.468 84.76 64.468C84.456 64.468 84.184 64.54 83.944 64.684C83.712 64.82 83.528 65.016 83.392 65.272C83.256 65.52 83.188 65.82 83.188 66.172V70H82.072ZM90.6889 70.144C90.2649 70.144 89.8889 70.068 89.5609 69.916C89.2409 69.756 88.9889 69.54 88.8049 69.268C88.6209 68.988 88.5289 68.668 88.5289 68.308C88.5289 67.964 88.6009 67.656 88.7449 67.384C88.8969 67.104 89.1289 66.868 89.4409 66.676C89.7609 66.484 90.1609 66.348 90.6409 66.268L93.0409 65.872V66.808L90.8929 67.168C90.4769 67.24 90.1729 67.372 89.9809 67.564C89.7969 67.756 89.7049 67.992 89.7049 68.272C89.7049 68.536 89.8089 68.756 90.0169 68.932C90.2329 69.108 90.5009 69.196 90.8209 69.196C91.2289 69.196 91.5809 69.112 91.8769 68.944C92.1809 68.768 92.4169 68.532 92.5849 68.236C92.7609 67.94 92.8489 67.612 92.8489 67.252V65.608C92.8489 65.256 92.7169 64.972 92.4529 64.756C92.1969 64.532 91.8569 64.42 91.4329 64.42C91.0649 64.42 90.7369 64.516 90.4489 64.708C90.1689 64.892 89.9609 65.14 89.8249 65.452L88.8529 64.948C88.9729 64.652 89.1649 64.388 89.4289 64.156C89.6929 63.916 90.0009 63.728 90.3529 63.592C90.7049 63.456 91.0729 63.388 91.4569 63.388C91.9529 63.388 92.3889 63.484 92.7649 63.676C93.1409 63.86 93.4329 64.12 93.6409 64.456C93.8569 64.784 93.9649 65.168 93.9649 65.608V70H92.8729V68.776L93.0769 68.848C92.9409 69.104 92.7569 69.328 92.5249 69.52C92.2929 69.712 92.0209 69.864 91.7089 69.976C91.3969 70.088 91.0569 70.144 90.6889 70.144ZM95.4553 70V63.532H96.5473V64.852L96.3913 64.648C96.5513 64.24 96.8073 63.928 97.1593 63.712C97.5113 63.496 97.9073 63.388 98.3473 63.388C98.8513 63.388 99.3033 63.528 99.7033 63.808C100.111 64.088 100.391 64.456 100.543 64.912L100.231 64.924C100.399 64.42 100.683 64.04 101.083 63.784C101.483 63.52 101.927 63.388 102.415 63.388C102.863 63.388 103.267 63.492 103.627 63.7C103.995 63.908 104.287 64.196 104.503 64.564C104.719 64.932 104.827 65.348 104.827 65.812V70H103.699V66.172C103.699 65.812 103.635 65.508 103.507 65.26C103.379 65.012 103.203 64.82 102.979 64.684C102.763 64.54 102.507 64.468 102.211 64.468C101.923 64.468 101.663 64.54 101.431 64.684C101.207 64.82 101.027 65.016 100.891 65.272C100.763 65.52 100.699 65.82 100.699 66.172V70H99.5713V66.172C99.5713 65.812 99.5073 65.508 99.3793 65.26C99.2513 65.012 99.0753 64.82 98.8513 64.684C98.6353 64.54 98.3793 64.468 98.0833 64.468C97.7953 64.468 97.5353 64.54 97.3033 64.684C97.0793 64.82 96.8993 65.016 96.7633 65.272C96.6353 65.52 96.5713 65.82 96.5713 66.172V70H95.4553ZM109.148 70.144C108.524 70.144 107.968 69.996 107.48 69.7C106.992 69.404 106.608 69 106.328 68.488C106.048 67.968 105.908 67.388 105.908 66.748C105.908 66.1 106.044 65.524 106.316 65.02C106.596 64.516 106.972 64.12 107.444 63.832C107.924 63.536 108.46 63.388 109.052 63.388C109.532 63.388 109.956 63.476 110.324 63.652C110.7 63.82 111.016 64.052 111.272 64.348C111.536 64.636 111.736 64.968 111.872 65.344C112.016 65.712 112.088 66.096 112.088 66.496C112.088 66.584 112.08 66.684 112.064 66.796C112.056 66.9 112.044 67 112.028 67.096H106.724V66.136H111.38L110.852 66.568C110.924 66.152 110.884 65.78 110.732 65.452C110.58 65.124 110.356 64.864 110.06 64.672C109.764 64.48 109.428 64.384 109.052 64.384C108.676 64.384 108.332 64.48 108.02 64.672C107.708 64.864 107.464 65.14 107.288 65.5C107.12 65.852 107.052 66.272 107.084 66.76C107.052 67.232 107.124 67.648 107.3 68.008C107.484 68.36 107.74 68.636 108.068 68.836C108.404 69.028 108.768 69.124 109.16 69.124C109.592 69.124 109.956 69.024 110.252 68.824C110.548 68.624 110.788 68.368 110.972 68.056L111.908 68.536C111.78 68.832 111.58 69.104 111.308 69.352C111.044 69.592 110.728 69.784 110.36 69.928C110 70.072 109.596 70.144 109.148 70.144Z" fill="#1A202C"/>
<rect x="56" y="79" width="144" height="30" rx="2" fill="#F3F5F7"/>
<path d="M69.056 102.64C68.928 102.64 68.796 102.628 68.66 102.604C68.532 102.588 68.404 102.556 68.276 102.508V101.668C68.356 101.676 68.456 101.688 68.576 101.704C68.704 101.728 68.832 101.74 68.96 101.74C69.352 101.74 69.652 101.656 69.86 101.488C70.068 101.328 70.272 101.016 70.472 100.552L70.88 99.592L70.856 100.384L68.132 93.568H69.104L71.336 99.196H71.084L73.304 93.568H74.3L71.36 100.816C71.232 101.128 71.068 101.424 70.868 101.704C70.676 101.984 70.432 102.208 70.136 102.376C69.84 102.552 69.48 102.64 69.056 102.64ZM78.1324 100.144C77.5244 100.144 76.9724 100 76.4764 99.712C75.9804 99.416 75.5844 99.016 75.2884 98.512C75.0004 98 74.8564 97.42 74.8564 96.772C74.8564 96.132 75.0004 95.56 75.2884 95.056C75.5764 94.552 75.9644 94.156 76.4524 93.868C76.9484 93.572 77.5084 93.424 78.1324 93.424C78.7564 93.424 79.3124 93.568 79.8004 93.856C80.2964 94.144 80.6844 94.54 80.9644 95.044C81.2524 95.548 81.3964 96.124 81.3964 96.772C81.3964 97.428 81.2484 98.012 80.9524 98.524C80.6564 99.028 80.2604 99.424 79.7644 99.712C79.2764 100 78.7324 100.144 78.1324 100.144ZM78.1324 99.244C78.5644 99.244 78.9524 99.136 79.2964 98.92C79.6484 98.704 79.9244 98.408 80.1244 98.032C80.3324 97.656 80.4364 97.236 80.4364 96.772C80.4364 96.308 80.3324 95.892 80.1244 95.524C79.9244 95.156 79.6484 94.864 79.2964 94.648C78.9524 94.432 78.5644 94.324 78.1324 94.324C77.7004 94.324 77.3084 94.432 76.9564 94.648C76.6124 94.864 76.3364 95.156 76.1284 95.524C75.9204 95.892 75.8164 96.308 75.8164 96.772C75.8164 97.236 75.9204 97.656 76.1284 98.032C76.3364 98.408 76.6124 98.704 76.9564 98.92C77.3084 99.136 77.7004 99.244 78.1324 99.244ZM85.1437 100.144C84.6957 100.144 84.2877 100.04 83.9197 99.832C83.5517 99.616 83.2597 99.32 83.0437 98.944C82.8357 98.56 82.7317 98.12 82.7317 97.624V93.568H83.6317V97.516C83.6317 97.86 83.6997 98.164 83.8357 98.428C83.9797 98.684 84.1757 98.884 84.4237 99.028C84.6797 99.172 84.9717 99.244 85.2997 99.244C85.6277 99.244 85.9197 99.172 86.1757 99.028C86.4317 98.876 86.6317 98.664 86.7757 98.392C86.9197 98.112 86.9917 97.78 86.9917 97.396V93.568H87.8917V100H86.9917V98.752L87.1957 98.8C87.0437 99.216 86.7837 99.544 86.4157 99.784C86.0477 100.024 85.6237 100.144 85.1437 100.144ZM89.6226 100V93.568H90.5226V94.624L90.4026 94.468C90.5546 94.164 90.7826 93.924 91.0866 93.748C91.3986 93.572 91.7746 93.484 92.2146 93.484H92.6226V94.384H92.0586C91.5946 94.384 91.2226 94.528 90.9426 94.816C90.6626 95.104 90.5226 95.512 90.5226 96.04V100H89.6226ZM93.5213 100.84V100H98.9213V100.84H93.5213ZM102.889 100.144C102.441 100.144 102.033 100.04 101.665 99.832C101.297 99.616 101.005 99.32 100.789 98.944C100.581 98.56 100.477 98.12 100.477 97.624V93.568H101.377V97.516C101.377 97.86 101.445 98.164 101.581 98.428C101.725 98.684 101.921 98.884 102.169 99.028C102.425 99.172 102.717 99.244 103.045 99.244C103.373 99.244 103.665 99.172 103.921 99.028C104.177 98.876 104.377 98.664 104.521 98.392C104.665 98.112 104.737 97.78 104.737 97.396V93.568H105.637V100H104.737V98.752L104.941 98.8C104.789 99.216 104.529 99.544 104.161 99.784C103.793 100.024 103.369 100.144 102.889 100.144ZM109.6 100.144C108.984 100.144 108.444 99.988 107.98 99.676C107.516 99.364 107.18 98.94 106.972 98.404L107.728 98.044C107.912 98.436 108.168 98.748 108.496 98.98C108.832 99.212 109.2 99.328 109.6 99.328C109.984 99.328 110.308 99.236 110.572 99.052C110.836 98.86 110.968 98.612 110.968 98.308C110.968 98.084 110.904 97.908 110.776 97.78C110.648 97.644 110.5 97.54 110.332 97.468C110.164 97.396 110.016 97.344 109.888 97.312L108.964 97.048C108.372 96.88 107.944 96.644 107.68 96.34C107.416 96.036 107.284 95.684 107.284 95.284C107.284 94.908 107.38 94.58 107.572 94.3C107.764 94.02 108.024 93.804 108.352 93.652C108.68 93.5 109.044 93.424 109.444 93.424C109.988 93.424 110.48 93.568 110.92 93.856C111.368 94.136 111.684 94.528 111.868 95.032L111.1 95.392C110.94 95.032 110.708 94.752 110.404 94.552C110.108 94.344 109.776 94.24 109.408 94.24C109.048 94.24 108.76 94.332 108.544 94.516C108.328 94.7 108.22 94.932 108.22 95.212C108.22 95.428 108.276 95.6 108.388 95.728C108.5 95.856 108.628 95.952 108.772 96.016C108.924 96.08 109.056 96.128 109.168 96.16L110.236 96.472C110.756 96.624 111.16 96.86 111.448 97.18C111.744 97.5 111.892 97.876 111.892 98.308C111.892 98.66 111.792 98.976 111.592 99.256C111.4 99.536 111.132 99.756 110.788 99.916C110.444 100.068 110.048 100.144 109.6 100.144ZM116.282 100.144C115.682 100.144 115.138 100 114.65 99.712C114.17 99.416 113.79 99.012 113.51 98.5C113.23 97.988 113.09 97.408 113.09 96.76C113.09 96.112 113.226 95.54 113.498 95.044C113.77 94.54 114.138 94.144 114.602 93.856C115.074 93.568 115.602 93.424 116.186 93.424C116.65 93.424 117.062 93.512 117.422 93.688C117.79 93.856 118.102 94.088 118.358 94.384C118.614 94.672 118.81 95 118.946 95.368C119.082 95.728 119.15 96.1 119.15 96.484C119.15 96.564 119.146 96.656 119.138 96.76C119.13 96.856 119.118 96.956 119.102 97.06H113.666V96.22H118.586L118.154 96.58C118.226 96.14 118.174 95.748 117.998 95.404C117.83 95.052 117.586 94.776 117.266 94.576C116.946 94.368 116.586 94.264 116.186 94.264C115.786 94.264 115.414 94.368 115.07 94.576C114.734 94.784 114.47 95.076 114.278 95.452C114.086 95.82 114.01 96.26 114.05 96.772C114.01 97.284 114.09 97.732 114.29 98.116C114.498 98.492 114.778 98.784 115.13 98.992C115.49 99.2 115.874 99.304 116.282 99.304C116.754 99.304 117.15 99.192 117.47 98.968C117.79 98.744 118.05 98.464 118.25 98.128L119.018 98.536C118.89 98.824 118.694 99.092 118.43 99.34C118.166 99.58 117.85 99.776 117.482 99.928C117.122 100.072 116.722 100.144 116.282 100.144ZM120.616 100V93.568H121.516V94.624L121.396 94.468C121.548 94.164 121.776 93.924 122.08 93.748C122.392 93.572 122.768 93.484 123.208 93.484H123.616V94.384H123.052C122.588 94.384 122.216 94.528 121.936 94.816C121.656 95.104 121.516 95.512 121.516 96.04V100H120.616Z" fill="#1A202C"/>
<path d="M125.32 102.28V89.86H126.28V102.28H125.32Z" fill="#1A202C"/>
<path d="M56.996 135V126.06H60.152C60.744 126.06 61.264 126.172 61.712 126.396C62.16 126.62 62.508 126.94 62.756 127.356C63.012 127.772 63.14 128.26 63.14 128.82C63.14 129.38 63.012 129.868 62.756 130.284C62.508 130.692 62.16 131.012 61.712 131.244C61.272 131.468 60.752 131.58 60.152 131.58H58.172V135H56.996ZM58.172 130.5H60.188C60.548 130.5 60.86 130.432 61.124 130.296C61.388 130.16 61.592 129.964 61.736 129.708C61.88 129.452 61.952 129.156 61.952 128.82C61.952 128.476 61.88 128.18 61.736 127.932C61.592 127.676 61.388 127.48 61.124 127.344C60.86 127.208 60.548 127.14 60.188 127.14H58.172V130.5ZM65.8091 135.144C65.3851 135.144 65.0091 135.068 64.6811 134.916C64.3611 134.756 64.1091 134.54 63.9251 134.268C63.7411 133.988 63.6491 133.668 63.6491 133.308C63.6491 132.964 63.7211 132.656 63.8651 132.384C64.0171 132.104 64.2491 131.868 64.5611 131.676C64.8811 131.484 65.2811 131.348 65.7611 131.268L68.1611 130.872V131.808L66.0131 132.168C65.5971 132.24 65.2931 132.372 65.1011 132.564C64.9171 132.756 64.8251 132.992 64.8251 133.272C64.8251 133.536 64.9291 133.756 65.1371 133.932C65.3531 134.108 65.6211 134.196 65.9411 134.196C66.3491 134.196 66.7011 134.112 66.9971 133.944C67.3011 133.768 67.5371 133.532 67.7051 133.236C67.8811 132.94 67.9691 132.612 67.9691 132.252V130.608C67.9691 130.256 67.8371 129.972 67.5731 129.756C67.3171 129.532 66.9771 129.42 66.5531 129.42C66.1851 129.42 65.8571 129.516 65.5691 129.708C65.2891 129.892 65.0811 130.14 64.9451 130.452L63.9731 129.948C64.0931 129.652 64.2851 129.388 64.5491 129.156C64.8131 128.916 65.1211 128.728 65.4731 128.592C65.8251 128.456 66.1931 128.388 66.5771 128.388C67.0731 128.388 67.5091 128.484 67.8851 128.676C68.2611 128.86 68.5531 129.12 68.7611 129.456C68.9771 129.784 69.0851 130.168 69.0851 130.608V135H67.9931V133.776L68.1971 133.848C68.0611 134.104 67.8771 134.328 67.6451 134.52C67.4131 134.712 67.1411 134.864 66.8291 134.976C66.5171 135.088 66.1771 135.144 65.8091 135.144ZM72.8914 135.144C72.2434 135.144 71.6794 134.984 71.1994 134.664C70.7194 134.344 70.3794 133.912 70.1794 133.368L71.0674 132.936C71.2514 133.32 71.5034 133.624 71.8234 133.848C72.1434 134.072 72.4994 134.184 72.8914 134.184C73.2434 134.184 73.5354 134.1 73.7674 133.932C73.9994 133.764 74.1154 133.544 74.1154 133.272C74.1154 133.08 74.0594 132.928 73.9474 132.816C73.8434 132.696 73.7154 132.604 73.5634 132.54C73.4114 132.468 73.2714 132.416 73.1434 132.384L72.1714 132.108C71.5874 131.94 71.1594 131.7 70.8874 131.388C70.6234 131.076 70.4914 130.712 70.4914 130.296C70.4914 129.912 70.5874 129.58 70.7794 129.3C70.9794 129.012 71.2474 128.788 71.5834 128.628C71.9274 128.468 72.3114 128.388 72.7354 128.388C73.3034 128.388 73.8114 128.532 74.2594 128.82C74.7154 129.108 75.0394 129.512 75.2314 130.032L74.3194 130.452C74.1754 130.116 73.9594 129.852 73.6714 129.66C73.3834 129.46 73.0594 129.36 72.6994 129.36C72.3714 129.36 72.1114 129.444 71.9194 129.612C71.7274 129.772 71.6314 129.976 71.6314 130.224C71.6314 130.408 71.6794 130.56 71.7754 130.68C71.8714 130.792 71.9874 130.88 72.1234 130.944C72.2594 131 72.3914 131.048 72.5194 131.088L73.5754 131.4C74.1034 131.552 74.5114 131.788 74.7994 132.108C75.0954 132.428 75.2434 132.812 75.2434 133.26C75.2434 133.62 75.1434 133.944 74.9434 134.232C74.7434 134.52 74.4674 134.744 74.1154 134.904C73.7634 135.064 73.3554 135.144 72.8914 135.144ZM78.7803 135.144C78.1323 135.144 77.5683 134.984 77.0883 134.664C76.6083 134.344 76.2683 133.912 76.0683 133.368L76.9563 132.936C77.1403 133.32 77.3923 133.624 77.7123 133.848C78.0323 134.072 78.3883 134.184 78.7803 134.184C79.1323 134.184 79.4243 134.1 79.6563 133.932C79.8883 133.764 80.0043 133.544 80.0043 133.272C80.0043 133.08 79.9483 132.928 79.8363 132.816C79.7323 132.696 79.6043 132.604 79.4523 132.54C79.3003 132.468 79.1603 132.416 79.0323 132.384L78.0603 132.108C77.4763 131.94 77.0483 131.7 76.7763 131.388C76.5123 131.076 76.3803 130.712 76.3803 130.296C76.3803 129.912 76.4763 129.58 76.6683 129.3C76.8683 129.012 77.1363 128.788 77.4723 128.628C77.8163 128.468 78.2003 128.388 78.6243 128.388C79.1923 128.388 79.7003 128.532 80.1483 128.82C80.6043 129.108 80.9283 129.512 81.1203 130.032L80.2083 130.452C80.0643 130.116 79.8483 129.852 79.5603 129.66C79.2723 129.46 78.9483 129.36 78.5883 129.36C78.2603 129.36 78.0003 129.444 77.8083 129.612C77.6163 129.772 77.5203 129.976 77.5203 130.224C77.5203 130.408 77.5683 130.56 77.6643 130.68C77.7603 130.792 77.8763 130.88 78.0123 130.944C78.1483 131 78.2803 131.048 78.4083 131.088L79.4643 131.4C79.9923 131.552 80.4003 131.788 80.6883 132.108C80.9843 132.428 81.1323 132.812 81.1323 133.26C81.1323 133.62 81.0323 133.944 80.8323 134.232C80.6323 134.52 80.3563 134.744 80.0043 134.904C79.6523 135.064 79.2443 135.144 78.7803 135.144ZM83.724 135L81.504 128.532H82.74L84.504 133.944L84.072 133.932L85.8 128.532H86.856L88.584 133.932L88.152 133.944L89.928 128.532H91.152L88.932 135H87.864L86.16 129.6H86.496L84.792 135H83.724ZM94.8649 135.144C94.2409 135.144 93.6769 135 93.1729 134.712C92.6689 134.416 92.2689 134.012 91.9729 133.5C91.6769 132.988 91.5289 132.408 91.5289 131.76C91.5289 131.112 91.6729 130.536 91.9609 130.032C92.2569 129.528 92.6569 129.128 93.1609 128.832C93.6649 128.536 94.2329 128.388 94.8649 128.388C95.4889 128.388 96.0529 128.536 96.5569 128.832C97.0609 129.12 97.4569 129.516 97.7449 130.02C98.0409 130.524 98.1889 131.104 98.1889 131.76C98.1889 132.416 98.0369 133 97.7329 133.512C97.4289 134.016 97.0249 134.416 96.5209 134.712C96.0249 135 95.4729 135.144 94.8649 135.144ZM94.8649 134.064C95.2649 134.064 95.6249 133.964 95.9449 133.764C96.2729 133.564 96.5289 133.288 96.7129 132.936C96.9049 132.584 97.0009 132.192 97.0009 131.76C97.0009 131.32 96.9049 130.932 96.7129 130.596C96.5289 130.252 96.2729 129.98 95.9449 129.78C95.6249 129.572 95.2649 129.468 94.8649 129.468C94.4569 129.468 94.0889 129.572 93.7609 129.78C93.4409 129.98 93.1849 130.252 92.9929 130.596C92.8009 130.932 92.7049 131.32 92.7049 131.76C92.7049 132.192 92.8009 132.584 92.9929 132.936C93.1849 133.288 93.4409 133.564 93.7609 133.764C94.0889 133.964 94.4569 134.064 94.8649 134.064ZM99.4045 135V128.532H100.496V129.72L100.376 129.552C100.528 129.184 100.76 128.912 101.072 128.736C101.384 128.552 101.764 128.46 102.212 128.46H102.608V129.516H102.044C101.588 129.516 101.22 129.66 100.94 129.948C100.66 130.228 100.52 130.628 100.52 131.148V135H99.4045ZM106.3 135.144C105.692 135.144 105.144 134.996 104.656 134.7C104.176 134.404 103.796 134 103.516 133.488C103.236 132.976 103.096 132.404 103.096 131.772C103.096 131.124 103.236 130.548 103.516 130.044C103.796 129.532 104.176 129.128 104.656 128.832C105.144 128.536 105.692 128.388 106.3 128.388C106.836 128.388 107.312 128.504 107.728 128.736C108.144 128.96 108.472 129.264 108.712 129.648L108.532 129.924V125.916H109.66V135H108.568V133.62L108.712 133.812C108.488 134.236 108.16 134.564 107.728 134.796C107.304 135.028 106.828 135.144 106.3 135.144ZM106.396 134.064C106.804 134.064 107.168 133.964 107.488 133.764C107.808 133.564 108.06 133.292 108.244 132.948C108.436 132.596 108.532 132.204 108.532 131.772C108.532 131.332 108.436 130.94 108.244 130.596C108.06 130.244 107.808 129.968 107.488 129.768C107.168 129.568 106.804 129.468 106.396 129.468C105.996 129.468 105.632 129.572 105.304 129.78C104.984 129.98 104.732 130.252 104.548 130.596C104.364 130.932 104.272 131.324 104.272 131.772C104.272 132.204 104.364 132.596 104.548 132.948C104.732 133.292 104.984 133.564 105.304 133.764C105.624 133.964 105.988 134.064 106.396 134.064Z" fill="#1A202C"/>
<rect x="56" y="144" width="144" height="30" rx="2" fill="#F3F5F7"/>
<circle cx="70.5" cy="159.5" r="2.5" fill="#1A202C"/>
<circle cx="81.5" cy="159.5" r="2.5" fill="#1A202C"/>
<circle cx="92.5" cy="159.5" r="2.5" fill="#1A202C"/>
<circle cx="103.5" cy="159.5" r="2.5" fill="#1A202C"/>
<circle cx="114.5" cy="159.5" r="2.5" fill="#1A202C"/>
<circle cx="125.5" cy="159.5" r="2.5" fill="#1A202C"/>
<circle cx="136.5" cy="159.5" r="2.5" fill="#1A202C"/>
<circle cx="147.5" cy="159.5" r="2.5" fill="#1A202C"/>
<circle cx="158.5" cy="159.5" r="2.5" fill="#1A202C"/>
</svg>
