<svg width="200" height="200" viewBox="0 0 200 200" fill="none" xmlns="http://www.w3.org/2000/svg">
<rect width="200" height="200" rx="16" fill="#F3F5F7"/>
<path d="M32 44C32 37.3726 37.3726 32 44 32H156C162.627 32 168 37.3726 168 44V200H32V44Z" fill="white"/>
<path d="M148.171 86.144C147.611 86.144 147.091 86.04 146.611 85.832C146.131 85.616 145.723 85.324 145.387 84.956C145.051 84.588 144.803 84.164 144.643 83.684L145.843 83.18C146.059 83.732 146.375 84.156 146.791 84.452C147.207 84.748 147.687 84.896 148.231 84.896C148.551 84.896 148.831 84.848 149.071 84.752C149.311 84.648 149.495 84.504 149.623 84.32C149.759 84.136 149.827 83.924 149.827 83.684C149.827 83.356 149.735 83.096 149.551 82.904C149.367 82.712 149.095 82.56 148.735 82.448L147.055 81.92C146.383 81.712 145.871 81.396 145.519 80.972C145.167 80.54 144.991 80.036 144.991 79.46C144.991 78.956 145.115 78.516 145.363 78.14C145.611 77.756 145.951 77.456 146.383 77.24C146.823 77.024 147.323 76.916 147.883 76.916C148.419 76.916 148.907 77.012 149.347 77.204C149.787 77.388 150.163 77.644 150.475 77.972C150.795 78.3 151.027 78.68 151.171 79.112L149.995 79.628C149.819 79.156 149.543 78.792 149.167 78.536C148.799 78.28 148.371 78.152 147.883 78.152C147.587 78.152 147.327 78.204 147.103 78.308C146.879 78.404 146.703 78.548 146.575 78.74C146.455 78.924 146.395 79.14 146.395 79.388C146.395 79.676 146.487 79.932 146.671 80.156C146.855 80.38 147.135 80.548 147.511 80.66L149.071 81.152C149.783 81.368 150.319 81.68 150.679 82.088C151.039 82.488 151.219 82.988 151.219 83.588C151.219 84.084 151.087 84.524 150.823 84.908C150.567 85.292 150.211 85.596 149.755 85.82C149.299 86.036 148.771 86.144 148.171 86.144ZM147.619 87.2V75.86H148.579V87.2H147.619Z" fill="#C3D4E9"/>
<path d="M148.171 109.144C147.611 109.144 147.091 109.04 146.611 108.832C146.131 108.616 145.723 108.324 145.387 107.956C145.051 107.588 144.803 107.164 144.643 106.684L145.843 106.18C146.059 106.732 146.375 107.156 146.791 107.452C147.207 107.748 147.687 107.896 148.231 107.896C148.551 107.896 148.831 107.848 149.071 107.752C149.311 107.648 149.495 107.504 149.623 107.32C149.759 107.136 149.827 106.924 149.827 106.684C149.827 106.356 149.735 106.096 149.551 105.904C149.367 105.712 149.095 105.56 148.735 105.448L147.055 104.92C146.383 104.712 145.871 104.396 145.519 103.972C145.167 103.54 144.991 103.036 144.991 102.46C144.991 101.956 145.115 101.516 145.363 101.14C145.611 100.756 145.951 100.456 146.383 100.24C146.823 100.024 147.323 99.916 147.883 99.916C148.419 99.916 148.907 100.012 149.347 100.204C149.787 100.388 150.163 100.644 150.475 100.972C150.795 101.3 151.027 101.68 151.171 102.112L149.995 102.628C149.819 102.156 149.543 101.792 149.167 101.536C148.799 101.28 148.371 101.152 147.883 101.152C147.587 101.152 147.327 101.204 147.103 101.308C146.879 101.404 146.703 101.548 146.575 101.74C146.455 101.924 146.395 102.14 146.395 102.388C146.395 102.676 146.487 102.932 146.671 103.156C146.855 103.38 147.135 103.548 147.511 103.66L149.071 104.152C149.783 104.368 150.319 104.68 150.679 105.088C151.039 105.488 151.219 105.988 151.219 106.588C151.219 107.084 151.087 107.524 150.823 107.908C150.567 108.292 150.211 108.596 149.755 108.82C149.299 109.036 148.771 109.144 148.171 109.144ZM147.619 110.2V98.86H148.579V110.2H147.619Z" fill="#C3D4E9"/>
<path d="M148.171 132.144C147.611 132.144 147.091 132.04 146.611 131.832C146.131 131.616 145.723 131.324 145.387 130.956C145.051 130.588 144.803 130.164 144.643 129.684L145.843 129.18C146.059 129.732 146.375 130.156 146.791 130.452C147.207 130.748 147.687 130.896 148.231 130.896C148.551 130.896 148.831 130.848 149.071 130.752C149.311 130.648 149.495 130.504 149.623 130.32C149.759 130.136 149.827 129.924 149.827 129.684C149.827 129.356 149.735 129.096 149.551 128.904C149.367 128.712 149.095 128.56 148.735 128.448L147.055 127.92C146.383 127.712 145.871 127.396 145.519 126.972C145.167 126.54 144.991 126.036 144.991 125.46C144.991 124.956 145.115 124.516 145.363 124.14C145.611 123.756 145.951 123.456 146.383 123.24C146.823 123.024 147.323 122.916 147.883 122.916C148.419 122.916 148.907 123.012 149.347 123.204C149.787 123.388 150.163 123.644 150.475 123.972C150.795 124.3 151.027 124.68 151.171 125.112L149.995 125.628C149.819 125.156 149.543 124.792 149.167 124.536C148.799 124.28 148.371 124.152 147.883 124.152C147.587 124.152 147.327 124.204 147.103 124.308C146.879 124.404 146.703 124.548 146.575 124.74C146.455 124.924 146.395 125.14 146.395 125.388C146.395 125.676 146.487 125.932 146.671 126.156C146.855 126.38 147.135 126.548 147.511 126.66L149.071 127.152C149.783 127.368 150.319 127.68 150.679 128.088C151.039 128.488 151.219 128.988 151.219 129.588C151.219 130.084 151.087 130.524 150.823 130.908C150.567 131.292 150.211 131.596 149.755 131.82C149.299 132.036 148.771 132.144 148.171 132.144ZM147.619 133.2V121.86H148.579V133.2H147.619Z" fill="#C3D4E9"/>
<path d="M148.171 155.144C147.611 155.144 147.091 155.04 146.611 154.832C146.131 154.616 145.723 154.324 145.387 153.956C145.051 153.588 144.803 153.164 144.643 152.684L145.843 152.18C146.059 152.732 146.375 153.156 146.791 153.452C147.207 153.748 147.687 153.896 148.231 153.896C148.551 153.896 148.831 153.848 149.071 153.752C149.311 153.648 149.495 153.504 149.623 153.32C149.759 153.136 149.827 152.924 149.827 152.684C149.827 152.356 149.735 152.096 149.551 151.904C149.367 151.712 149.095 151.56 148.735 151.448L147.055 150.92C146.383 150.712 145.871 150.396 145.519 149.972C145.167 149.54 144.991 149.036 144.991 148.46C144.991 147.956 145.115 147.516 145.363 147.14C145.611 146.756 145.951 146.456 146.383 146.24C146.823 146.024 147.323 145.916 147.883 145.916C148.419 145.916 148.907 146.012 149.347 146.204C149.787 146.388 150.163 146.644 150.475 146.972C150.795 147.3 151.027 147.68 151.171 148.112L149.995 148.628C149.819 148.156 149.543 147.792 149.167 147.536C148.799 147.28 148.371 147.152 147.883 147.152C147.587 147.152 147.327 147.204 147.103 147.308C146.879 147.404 146.703 147.548 146.575 147.74C146.455 147.924 146.395 148.14 146.395 148.388C146.395 148.676 146.487 148.932 146.671 149.156C146.855 149.38 147.135 149.548 147.511 149.66L149.071 150.152C149.783 150.368 150.319 150.68 150.679 151.088C151.039 151.488 151.219 151.988 151.219 152.588C151.219 153.084 151.087 153.524 150.823 153.908C150.567 154.292 150.211 154.596 149.755 154.82C149.299 155.036 148.771 155.144 148.171 155.144ZM147.619 156.2V144.86H148.579V156.2H147.619Z" fill="#C3D4E9"/>
<path d="M148.171 178.144C147.611 178.144 147.091 178.04 146.611 177.832C146.131 177.616 145.723 177.324 145.387 176.956C145.051 176.588 144.803 176.164 144.643 175.684L145.843 175.18C146.059 175.732 146.375 176.156 146.791 176.452C147.207 176.748 147.687 176.896 148.231 176.896C148.551 176.896 148.831 176.848 149.071 176.752C149.311 176.648 149.495 176.504 149.623 176.32C149.759 176.136 149.827 175.924 149.827 175.684C149.827 175.356 149.735 175.096 149.551 174.904C149.367 174.712 149.095 174.56 148.735 174.448L147.055 173.92C146.383 173.712 145.871 173.396 145.519 172.972C145.167 172.54 144.991 172.036 144.991 171.46C144.991 170.956 145.115 170.516 145.363 170.14C145.611 169.756 145.951 169.456 146.383 169.24C146.823 169.024 147.323 168.916 147.883 168.916C148.419 168.916 148.907 169.012 149.347 169.204C149.787 169.388 150.163 169.644 150.475 169.972C150.795 170.3 151.027 170.68 151.171 171.112L149.995 171.628C149.819 171.156 149.543 170.792 149.167 170.536C148.799 170.28 148.371 170.152 147.883 170.152C147.587 170.152 147.327 170.204 147.103 170.308C146.879 170.404 146.703 170.548 146.575 170.74C146.455 170.924 146.395 171.14 146.395 171.388C146.395 171.676 146.487 171.932 146.671 172.156C146.855 172.38 147.135 172.548 147.511 172.66L149.071 173.152C149.783 173.368 150.319 173.68 150.679 174.088C151.039 174.488 151.219 174.988 151.219 175.588C151.219 176.084 151.087 176.524 150.823 176.908C150.567 177.292 150.211 177.596 149.755 177.82C149.299 178.036 148.771 178.144 148.171 178.144ZM147.619 179.2V167.86H148.579V179.2H147.619Z" fill="#C3D4E9"/>
<path d="M74.4144 60V51.06H80.3064V52.32H75.8304V54.888H80.0664V56.148H75.8304V58.74H80.3064V60H74.4144ZM80.6014 60L82.8694 56.748L80.6014 53.508H82.1974L84.0574 56.22H83.2894L85.1494 53.508H86.7454L84.4654 56.748L86.7334 60H85.1374L83.3014 57.276H84.0454L82.1974 60H80.6014ZM87.4313 62.4V53.508H88.7273V54.852L88.5713 54.54C88.8113 54.172 89.1313 53.884 89.5313 53.676C89.9313 53.468 90.3873 53.364 90.8993 53.364C91.5153 53.364 92.0673 53.512 92.5553 53.808C93.0513 54.104 93.4393 54.508 93.7193 55.02C94.0073 55.532 94.1513 56.108 94.1513 56.748C94.1513 57.388 94.0073 57.964 93.7193 58.476C93.4393 58.988 93.0553 59.396 92.5673 59.7C92.0793 59.996 91.5233 60.144 90.8993 60.144C90.3953 60.144 89.9353 60.04 89.5193 59.832C89.1113 59.624 88.7953 59.324 88.5713 58.932L88.7873 58.68V62.4H87.4313ZM90.7673 58.884C91.1513 58.884 91.4913 58.792 91.7873 58.608C92.0833 58.424 92.3153 58.172 92.4833 57.852C92.6593 57.524 92.7473 57.156 92.7473 56.748C92.7473 56.34 92.6593 55.976 92.4833 55.656C92.3153 55.336 92.0833 55.084 91.7873 54.9C91.4913 54.716 91.1513 54.624 90.7673 54.624C90.3913 54.624 90.0513 54.716 89.7473 54.9C89.4513 55.084 89.2153 55.336 89.0393 55.656C88.8713 55.976 88.7873 56.34 88.7873 56.748C88.7873 57.156 88.8713 57.524 89.0393 57.852C89.2153 58.172 89.4513 58.424 89.7473 58.608C90.0513 58.792 90.3913 58.884 90.7673 58.884ZM98.2784 60.144C97.6304 60.144 97.0544 59.996 96.5504 59.7C96.0544 59.396 95.6664 58.988 95.3864 58.476C95.1064 57.956 94.9664 57.376 94.9664 56.736C94.9664 56.08 95.1064 55.5 95.3864 54.996C95.6744 54.492 96.0584 54.096 96.5384 53.808C97.0184 53.512 97.5624 53.364 98.1704 53.364C98.6584 53.364 99.0944 53.448 99.4784 53.616C99.8624 53.784 100.186 54.016 100.45 54.312C100.714 54.6 100.914 54.932 101.05 55.308C101.194 55.684 101.266 56.084 101.266 56.508C101.266 56.612 101.262 56.72 101.254 56.832C101.246 56.944 101.23 57.048 101.206 57.144H96.0344V56.064H100.438L99.7904 56.556C99.8704 56.164 99.8424 55.816 99.7064 55.512C99.5784 55.2 99.3784 54.956 99.1064 54.78C98.8424 54.596 98.5304 54.504 98.1704 54.504C97.8104 54.504 97.4904 54.596 97.2104 54.78C96.9304 54.956 96.7144 55.212 96.5624 55.548C96.4104 55.876 96.3504 56.276 96.3824 56.748C96.3424 57.188 96.4024 57.572 96.5624 57.9C96.7304 58.228 96.9624 58.484 97.2584 58.668C97.5624 58.852 97.9064 58.944 98.2904 58.944C98.6824 58.944 99.0144 58.856 99.2864 58.68C99.5664 58.504 99.7864 58.276 99.9464 57.996L101.05 58.536C100.922 58.84 100.722 59.116 100.45 59.364C100.186 59.604 99.8664 59.796 99.4904 59.94C99.1224 60.076 98.7184 60.144 98.2784 60.144ZM102.35 60V53.508H103.646V54.78L103.49 54.612C103.65 54.204 103.906 53.896 104.258 53.688C104.61 53.472 105.018 53.364 105.482 53.364C105.962 53.364 106.386 53.468 106.754 53.676C107.122 53.884 107.41 54.172 107.618 54.54C107.826 54.908 107.93 55.332 107.93 55.812V60H106.586V56.172C106.586 55.844 106.526 55.568 106.406 55.344C106.286 55.112 106.114 54.936 105.89 54.816C105.674 54.688 105.426 54.624 105.146 54.624C104.866 54.624 104.614 54.688 104.39 54.816C104.174 54.936 104.006 55.112 103.886 55.344C103.766 55.576 103.706 55.852 103.706 56.172V60H102.35ZM111.541 60.144C110.877 60.144 110.293 59.98 109.789 59.652C109.293 59.324 108.945 58.884 108.745 58.332L109.789 57.84C109.965 58.208 110.205 58.5 110.509 58.716C110.821 58.932 111.165 59.04 111.541 59.04C111.861 59.04 112.121 58.968 112.321 58.824C112.521 58.68 112.621 58.484 112.621 58.236C112.621 58.076 112.577 57.948 112.489 57.852C112.401 57.748 112.289 57.664 112.153 57.6C112.025 57.536 111.893 57.488 111.757 57.456L110.737 57.168C110.177 57.008 109.757 56.768 109.477 56.448C109.205 56.12 109.069 55.74 109.069 55.308C109.069 54.916 109.169 54.576 109.369 54.288C109.569 53.992 109.845 53.764 110.197 53.604C110.549 53.444 110.945 53.364 111.385 53.364C111.977 53.364 112.505 53.512 112.969 53.808C113.433 54.096 113.761 54.5 113.953 55.02L112.909 55.512C112.781 55.2 112.577 54.952 112.297 54.768C112.025 54.584 111.717 54.492 111.373 54.492C111.077 54.492 110.841 54.564 110.665 54.708C110.489 54.844 110.401 55.024 110.401 55.248C110.401 55.4 110.441 55.528 110.521 55.632C110.601 55.728 110.705 55.808 110.833 55.872C110.961 55.928 111.093 55.976 111.229 56.016L112.285 56.328C112.821 56.48 113.233 56.72 113.521 57.048C113.809 57.368 113.953 57.752 113.953 58.2C113.953 58.584 113.849 58.924 113.641 59.22C113.441 59.508 113.161 59.736 112.801 59.904C112.441 60.064 112.021 60.144 111.541 60.144ZM118.09 60.144C117.442 60.144 116.866 59.996 116.362 59.7C115.866 59.396 115.478 58.988 115.198 58.476C114.918 57.956 114.778 57.376 114.778 56.736C114.778 56.08 114.918 55.5 115.198 54.996C115.486 54.492 115.87 54.096 116.35 53.808C116.83 53.512 117.374 53.364 117.982 53.364C118.47 53.364 118.906 53.448 119.29 53.616C119.674 53.784 119.998 54.016 120.262 54.312C120.526 54.6 120.726 54.932 120.862 55.308C121.006 55.684 121.078 56.084 121.078 56.508C121.078 56.612 121.074 56.72 121.066 56.832C121.058 56.944 121.042 57.048 121.018 57.144H115.846V56.064H120.25L119.602 56.556C119.682 56.164 119.654 55.816 119.518 55.512C119.39 55.2 119.19 54.956 118.918 54.78C118.654 54.596 118.342 54.504 117.982 54.504C117.622 54.504 117.302 54.596 117.022 54.78C116.742 54.956 116.526 55.212 116.374 55.548C116.222 55.876 116.162 56.276 116.194 56.748C116.154 57.188 116.214 57.572 116.374 57.9C116.542 58.228 116.774 58.484 117.07 58.668C117.374 58.852 117.718 58.944 118.102 58.944C118.494 58.944 118.826 58.856 119.098 58.68C119.378 58.504 119.598 58.276 119.758 57.996L120.862 58.536C120.734 58.84 120.534 59.116 120.262 59.364C119.998 59.604 119.678 59.796 119.302 59.94C118.934 60.076 118.53 60.144 118.09 60.144ZM124.561 60.144C123.897 60.144 123.313 59.98 122.809 59.652C122.313 59.324 121.965 58.884 121.765 58.332L122.809 57.84C122.985 58.208 123.225 58.5 123.529 58.716C123.841 58.932 124.185 59.04 124.561 59.04C124.881 59.04 125.141 58.968 125.341 58.824C125.541 58.68 125.641 58.484 125.641 58.236C125.641 58.076 125.597 57.948 125.509 57.852C125.421 57.748 125.309 57.664 125.173 57.6C125.045 57.536 124.913 57.488 124.777 57.456L123.757 57.168C123.197 57.008 122.777 56.768 122.497 56.448C122.225 56.12 122.089 55.74 122.089 55.308C122.089 54.916 122.189 54.576 122.389 54.288C122.589 53.992 122.865 53.764 123.217 53.604C123.569 53.444 123.965 53.364 124.405 53.364C124.997 53.364 125.525 53.512 125.989 53.808C126.453 54.096 126.781 54.5 126.973 55.02L125.929 55.512C125.801 55.2 125.597 54.952 125.317 54.768C125.045 54.584 124.737 54.492 124.393 54.492C124.097 54.492 123.861 54.564 123.685 54.708C123.509 54.844 123.421 55.024 123.421 55.248C123.421 55.4 123.461 55.528 123.541 55.632C123.621 55.728 123.725 55.808 123.853 55.872C123.981 55.928 124.113 55.976 124.249 56.016L125.305 56.328C125.841 56.48 126.253 56.72 126.541 57.048C126.829 57.368 126.973 57.752 126.973 58.2C126.973 58.584 126.869 58.924 126.661 59.22C126.461 59.508 126.181 59.736 125.821 59.904C125.461 60.064 125.041 60.144 124.561 60.144Z" fill="#1A202C"/>
<rect x="48" y="79" width="41" height="5" rx="2.5" fill="#C3D4E9"/>
<rect x="48" y="102" width="79" height="5" rx="2.5" fill="#C3D4E9"/>
<rect x="48" y="125" width="60" height="5" rx="2.5" fill="#C3D4E9"/>
<rect x="48" y="148" width="31" height="5" rx="2.5" fill="#C3D4E9"/>
<rect x="83" y="148" width="31" height="5" rx="2.5" fill="#C3D4E9"/>
<rect x="48" y="171" width="75" height="5" rx="2.5" fill="#C3D4E9"/>
</svg>
