<svg width="480" height="480" viewBox="0 0 480 480" fill="none" xmlns="http://www.w3.org/2000/svg">
<path d="M100 420H380C402.091 420 420 402.091 420 380V100C420 77.9086 402.091 60 380 60H100C77.9086 60 60 77.9086 60 100V380C60 402.091 77.9086 420 100 420ZM100 420L320 200L420 300M200 170C200 186.569 186.569 200 170 200C153.431 200 140 186.569 140 170C140 153.431 153.431 140 170 140C186.569 140 200 153.431 200 170Z" stroke="#1E1E1E" stroke-width="4" stroke-linecap="round" stroke-linejoin="round"/>
</svg>
